<svg xmlns="http://www.w3.org/2000/svg" width="1200" height="630" viewBox="0 0 1200 630" role="img" aria-labelledby="title description">
  <title id="title">Syed Mughees Ali — Junior Full-Stack Developer</title>
  <desc id="description">Navy professional portfolio card with SMA initials and blue technical details.</desc>
  <defs>
    <linearGradient id="background" x1="0" y1="0" x2="1" y2="1">
      <stop offset="0" stop-color="#061225"/>
      <stop offset="0.62" stop-color="#08182f"/>
      <stop offset="1" stop-color="#102844"/>
    </linearGradient>
    <pattern id="grid" width="72" height="72" patternUnits="userSpaceOnUse">
      <path d="M72 0H0V72" fill="none" stroke="#60a5fa" stroke-opacity=".11"/>
    </pattern>
  </defs>
  <rect width="1200" height="630" fill="url(#background)"/>
  <rect width="1200" height="630" fill="url(#grid)"/>
  <path d="M0 0h340L1200 630H860z" fill="#3b82f6" opacity=".035"/>
  <path d="M80 92h72M80 92v72M1120 538h-72M1120 538v-72" fill="none" stroke="#60a5fa" stroke-width="2" stroke-opacity=".55"/>
  <g transform="translate(86 92)">
    <rect width="104" height="104" rx="20" fill="#3b82f6" fill-opacity=".12" stroke="#60a5fa" stroke-opacity=".65" stroke-width="2"/>
    <text x="52" y="63" fill="#ffffff" font-family="Manrope, Arial, sans-serif" font-size="27" font-weight="800" letter-spacing="2" text-anchor="middle">SMA</text>
  </g>
  <text x="86" y="290" fill="#9fc6ff" font-family="Inter, Arial, sans-serif" font-size="21" font-weight="700" letter-spacing="4">PORTFOLIO · KARACHI, PAKISTAN</text>
  <text x="84" y="376" fill="#ffffff" font-family="Manrope, Arial, sans-serif" font-size="66" font-weight="700" letter-spacing="-3">Syed Mughees Ali</text>
  <text x="87" y="434" fill="#cbd8e9" font-family="Inter, Arial, sans-serif" font-size="30" font-weight="500">Junior Full-Stack Developer</text>
  <line x1="87" y1="492" x2="735" y2="492" stroke="#60a5fa" stroke-opacity=".35"/>
  <g fill="#bcd7fb" font-family="Consolas, monospace" font-size="19">
    <text x="88" y="544">C#</text>
    <text x="157" y="544">Python</text>
    <text x="267" y="544">SQL</text>
    <text x="339" y="544">APIs</text>
  </g>
  <g transform="translate(913 128)" fill="none" stroke="#60a5fa">
    <rect width="198" height="318" rx="80" fill="#3b82f6" fill-opacity=".045" stroke-opacity=".28" stroke-width="2"/>
    <path d="M40 81h118M40 117h78M40 153h102" stroke-opacity=".23" stroke-width="2"/>
    <path d="M58 244l30 30 57-67" stroke-opacity=".75" stroke-width="7" stroke-linecap="round" stroke-linejoin="round"/>
  </g>
  <rect y="622" width="1200" height="8" fill="#3b82f6"/>
</svg>
